<svg xmlns="http://www.w3.org/2000/svg" viewBox="0 0 1186.62 505.18"><defs><style>.cls-1,.cls-2{fill:#fff;}.cls-1{fill-rule:evenodd;}</style></defs><g id="Layer_2" data-name="Layer 2"><g id="Layer_1-2" data-name="Layer 1"><path class="cls-1" d="M11.3,10.42V26.3h6.18c4.45,0,7.43-.3,8.94-.88A7.36,7.36,0,0,0,30,22.67a7.55,7.55,0,0,0,1.27-4.35,7.22,7.22,0,0,0-1.79-5,7.81,7.81,0,0,0-4.54-2.48,55.12,55.12,0,0,0-8.14-.38ZM0,56.9V1H18.13c6.86,0,11.35.27,13.43.83a14.57,14.57,0,0,1,8.05,5.48q3.26,4.22,3.26,10.9A18.33,18.33,0,0,1,41,26.83a15.42,15.42,0,0,1-4.76,5.51A16.41,16.41,0,0,1,30.38,35a64.93,64.93,0,0,1-11.72.8H11.3V56.9Z"/><path class="cls-1" d="M63.47,24.61h8.37c5.42,0,8.79-.22,10.15-.68a6.11,6.11,0,0,0,3.17-2.37,7.23,7.23,0,0,0,1.15-4.19,6.72,6.72,0,0,0-1.52-4.57,7,7,0,0,0-4.24-2.2c-.92-.12-3.68-.18-8.25-.18H63.47V24.61ZM52.17,56.9V1H76c6,0,10.32.5,13,1.51a12.82,12.82,0,0,1,6.52,5.37,16,16,0,0,1,2.43,8.81A14.93,14.93,0,0,1,94.24,27q-3.69,4.11-11.06,5.18a26.34,26.34,0,0,1,6,4.69A63.65,63.65,0,0,1,95.65,46l6.84,10.91H89L80.81,44.74a74.42,74.42,0,0,0-6-8.23,8.55,8.55,0,0,0-3.39-2.34,19,19,0,0,0-5.68-.62h-2.3V56.9Z"/><polygon class="cls-1" points="108.59 56.91 108.59 0.95 150.08 0.95 150.08 10.42 119.89 10.42 119.89 22.82 147.99 22.82 147.99 32.26 119.89 32.26 119.89 47.48 151.15 47.48 151.15 56.91 108.59 56.91"/><path class="cls-1" d="M157.87,38.7l11-1.06c.67,3.68,2,6.4,4,8.13a12.22,12.22,0,0,0,8.19,2.59q5.44,0,8.21-2.31a6.83,6.83,0,0,0,2.78-5.4,5,5,0,0,0-1.17-3.38,9.21,9.21,0,0,0-4.05-2.42c-1.33-.47-4.35-1.28-9-2.45q-9.09-2.25-12.76-5.53a14.58,14.58,0,0,1-5.14-11.26,14.4,14.4,0,0,1,2.41-8,15.3,15.3,0,0,1,7-5.67,28.16,28.16,0,0,1,11-1.94c7,0,12.32,1.54,15.86,4.62A16.34,16.34,0,0,1,201.77,17l-11.31.5c-.47-2.89-1.52-5-3.11-6.21s-4-1.9-7.15-1.9-5.86.68-7.71,2a4.06,4.06,0,0,0-1.8,3.47,4.27,4.27,0,0,0,1.68,3.39Q174.52,20,182.76,22A55.85,55.85,0,0,1,195,26a15.86,15.86,0,0,1,6.19,5.7,16.59,16.59,0,0,1,2.23,8.91,16.55,16.55,0,0,1-2.67,9,16,16,0,0,1-7.56,6.24,31.73,31.73,0,0,1-12.17,2q-10.64,0-16.31-4.9T157.87,38.7Z"/><path class="cls-1" d="M210,38.7l11-1.06c.68,3.68,2,6.4,4,8.13a12.24,12.24,0,0,0,8.19,2.59q5.44,0,8.22-2.31a6.82,6.82,0,0,0,2.77-5.4A5.07,5.07,0,0,0,243,37.27,9.19,9.19,0,0,0,239,34.85c-1.32-.47-4.34-1.28-9-2.45q-9.09-2.25-12.74-5.53A14.55,14.55,0,0,1,212,15.61a14.4,14.4,0,0,1,2.41-8,15.38,15.38,0,0,1,7-5.67,28.23,28.23,0,0,1,11-1.94Q243,0,248.31,4.62A16.29,16.29,0,0,1,253.9,17l-11.3.5q-.72-4.33-3.1-6.21c-1.58-1.26-4-1.9-7.16-1.9s-5.85.68-7.71,2a4.05,4.05,0,0,0-1.79,3.47,4.26,4.26,0,0,0,1.67,3.39Q226.66,20,234.9,22a55.66,55.66,0,0,1,12.19,4,15.79,15.79,0,0,1,6.19,5.7,16.68,16.68,0,0,1,2.23,8.91,16.55,16.55,0,0,1-2.67,9,16.06,16.06,0,0,1-7.57,6.24,31.66,31.66,0,0,1-12.17,2c-7.08,0-12.5-1.64-16.3-4.9S210.74,45,210,38.7Z"/><path class="cls-1" d="M264.94,1h11.3V31.26a61.44,61.44,0,0,0,.42,9.35,9,9,0,0,0,3.45,5.52,12.09,12.09,0,0,0,7.47,2.07c3.19,0,5.61-.65,7.24-2a7.64,7.64,0,0,0,2.94-4.83,63,63,0,0,0,.5-9.5V1h11.3V30.34q0,10.08-.92,14.24a15.57,15.57,0,0,1-3.38,7,16.89,16.89,0,0,1-6.59,4.57,28.59,28.59,0,0,1-10.75,1.69q-8,0-12.16-1.85a17.53,17.53,0,0,1-6.55-4.8A15.55,15.55,0,0,1,266.05,45a67.81,67.81,0,0,1-1.11-14.2Z"/><path class="cls-1" d="M332.8,24.61h8.36c5.42,0,8.8-.22,10.16-.68a6,6,0,0,0,3.16-2.37,7.23,7.23,0,0,0,1.16-4.19,6.72,6.72,0,0,0-1.52-4.57,7,7,0,0,0-4.26-2.2c-.92-.12-3.66-.18-8.25-.18H332.8V24.61ZM321.5,56.9V1h23.78c6,0,10.34.5,13,1.51a12.8,12.8,0,0,1,6.51,5.37,16.05,16.05,0,0,1,2.44,8.81A14.89,14.89,0,0,1,363.56,27c-2.45,2.74-6.15,4.46-11.06,5.18a26.13,26.13,0,0,1,6.05,4.69A64.33,64.33,0,0,1,365,46l6.83,10.91H358.3l-8.16-12.16a76.26,76.26,0,0,0-6-8.23,8.79,8.79,0,0,0-3.4-2.34,19,19,0,0,0-5.69-.62H332.8V56.9Z"/><polygon class="cls-1" points="377.92 56.91 377.92 0.95 419.41 0.95 419.41 10.42 389.22 10.42 389.22 22.82 417.32 22.82 417.32 32.26 389.22 32.26 389.22 47.48 420.47 47.48 420.47 56.91 377.92 56.91"/><path class="cls-1" d="M448.92,38.7l11-1.06c.68,3.68,2,6.4,4,8.13a12.27,12.27,0,0,0,8.2,2.59c3.63,0,6.36-.77,8.22-2.31a6.83,6.83,0,0,0,2.76-5.4,5,5,0,0,0-1.17-3.38,9.19,9.19,0,0,0-4.06-2.42c-1.32-.47-4.33-1.28-9-2.45q-9.09-2.25-12.76-5.53a14.74,14.74,0,0,1-2.73-19.26,15.4,15.4,0,0,1,7-5.67,28.15,28.15,0,0,1,11-1.94q10.53,0,15.86,4.62A16.36,16.36,0,0,1,492.81,17l-11.31.5c-.47-2.89-1.51-5-3.1-6.21s-4-1.9-7.16-1.9-5.85.68-7.71,2a4.05,4.05,0,0,0-1.79,3.47,4.24,4.24,0,0,0,1.68,3.39Q465.57,20,473.8,22A55.78,55.78,0,0,1,486,26a15.83,15.83,0,0,1,6.18,5.7,16.59,16.59,0,0,1,2.23,8.91,16.46,16.46,0,0,1-2.67,9,16,16,0,0,1-7.56,6.24,31.65,31.65,0,0,1-12.16,2c-7.09,0-12.51-1.64-16.32-4.9S449.65,45,448.92,38.7Z"/><polygon class="cls-1" points="518.61 56.91 518.61 33.35 498.11 0.95 511.36 0.95 524.53 23.09 537.43 0.95 550.44 0.95 529.88 33.44 529.88 56.91 518.61 56.91"/><path class="cls-1" d="M553.19,38.7l11-1.06c.66,3.68,2,6.4,4,8.13a12.28,12.28,0,0,0,8.19,2.59q5.46,0,8.22-2.31a6.84,6.84,0,0,0,2.77-5.4,5.12,5.12,0,0,0-1.16-3.38,9.19,9.19,0,0,0-4.06-2.42c-1.33-.47-4.34-1.28-9.06-2.45-6-1.5-10.3-3.34-12.74-5.53a14.73,14.73,0,0,1-2.74-19.26,15.28,15.28,0,0,1,7-5.67,28.09,28.09,0,0,1,11-1.94q10.53,0,15.86,4.62A16.29,16.29,0,0,1,597.09,17l-11.3.5c-.49-2.89-1.52-5-3.11-6.21s-4-1.9-7.16-1.9-5.85.68-7.71,2A4,4,0,0,0,566,14.85a4.26,4.26,0,0,0,1.67,3.39Q569.85,20,578.07,22a55.72,55.72,0,0,1,12.21,4,15.83,15.83,0,0,1,6.18,5.7,16.59,16.59,0,0,1,2.24,8.91,16.47,16.47,0,0,1-2.68,9,16,16,0,0,1-7.56,6.24,31.7,31.7,0,0,1-12.17,2q-10.63,0-16.3-4.9T553.19,38.7Z"/><polygon class="cls-1" points="620.79 56.91 620.79 10.42 604.19 10.42 604.19 0.95 648.66 0.95 648.66 10.42 632.1 10.42 632.1 56.91 620.79 56.91"/><polygon class="cls-1" points="655.95 56.91 655.95 0.95 697.43 0.95 697.43 10.42 667.26 10.42 667.26 22.82 695.34 22.82 695.34 32.26 667.26 32.26 667.26 47.48 698.51 47.48 698.51 56.91 655.95 56.91"/><polygon class="cls-1" points="707.94 56.91 707.94 0.95 724.84 0.95 734.99 39.12 745.04 0.95 761.99 0.95 761.99 56.91 751.49 56.91 751.49 12.86 740.38 56.91 729.51 56.91 718.44 12.86 718.44 56.91 707.94 56.91"/><path class="cls-1" d="M806.27,32.51v15h10.46a49,49,0,0,0,7.73-.35,6.59,6.59,0,0,0,5.7-7,7.3,7.3,0,0,0-1.23-4.28,7,7,0,0,0-3.53-2.55c-1.54-.55-4.88-.81-10-.81Zm0-22.24V23.2h7.41c4.4,0,7.12-.06,8.19-.18a7.48,7.48,0,0,0,4.56-2,5.87,5.87,0,0,0,1.65-4.38,6.1,6.1,0,0,0-1.42-4.21,6.52,6.52,0,0,0-4.25-2c-1.12-.12-4.33-.18-9.65-.18ZM795,1h22.37a63,63,0,0,1,9.91.56,14.44,14.44,0,0,1,5.83,2.31,14.21,14.21,0,0,1,4.3,4.66A12.85,12.85,0,0,1,839.09,15a13.31,13.31,0,0,1-7.86,12.15,14.71,14.71,0,0,1,7.86,5.09,13.42,13.42,0,0,1,2.75,8.42,16.86,16.86,0,0,1-1.77,7.43,15.06,15.06,0,0,1-4.85,5.76,16,16,0,0,1-7.58,2.66q-2.83.3-13.63.38H795Z"/><path class="cls-1" d="M851.29,1H862.6V31.26a61,61,0,0,0,.43,9.35,9,9,0,0,0,3.45,5.52,12,12,0,0,0,7.45,2.07c3.21,0,5.64-.65,7.25-2a7.74,7.74,0,0,0,3-4.83,63.3,63.3,0,0,0,.49-9.5V1h11.3V30.34q0,10.08-.92,14.24a15.77,15.77,0,0,1-3.37,7A17.19,17.19,0,0,1,885,56.17a28.67,28.67,0,0,1-10.77,1.69c-5.34,0-9.38-.61-12.15-1.85a17.41,17.41,0,0,1-6.54-4.8A15.47,15.47,0,0,1,852.4,45a68.5,68.5,0,0,1-1.11-14.2Z"/><rect class="cls-2" x="907.48" y="0.95" width="11.3" height="55.96"/><polygon class="cls-1" points="929.85 56.91 929.85 1.41 941.15 1.41 941.15 47.48 969.24 47.48 969.24 56.91 929.85 56.91"/><path class="cls-1" d="M988.56,10.42V47.49H997a30.18,30.18,0,0,0,6.82-.55,10.38,10.38,0,0,0,4.57-2.33,11.68,11.68,0,0,0,3-5.39A36.22,36.22,0,0,0,1012.49,29a33.1,33.1,0,0,0-1.15-9.95,12.47,12.47,0,0,0-3.2-5.41,10.65,10.65,0,0,0-5.22-2.65,52.08,52.08,0,0,0-9.29-.53ZM977.26,1h20.65A40.26,40.26,0,0,1,1008.55,2,18.62,18.62,0,0,1,1017,7.17a24.3,24.3,0,0,1,5.34,9.07,41,41,0,0,1,1.85,13.22,36.72,36.72,0,0,1-1.72,11.92,24.73,24.73,0,0,1-6,9.88,19.81,19.81,0,0,1-8,4.46,33.81,33.81,0,0,1-10,1.18H977.26Z"/><polygon class="cls-1" points="1033.76 56.91 1033.76 0.95 1075.24 0.95 1075.24 10.42 1045.06 10.42 1045.06 22.82 1073.14 22.82 1073.14 32.26 1045.06 32.26 1045.06 47.48 1076.31 47.48 1076.31 56.91 1033.76 56.91"/><path class="cls-1" d="M1097.23,24.61h8.35c5.42,0,8.8-.22,10.15-.68a6,6,0,0,0,3.18-2.37,7.31,7.31,0,0,0,1.15-4.19,6.77,6.77,0,0,0-1.51-4.57,7,7,0,0,0-4.27-2.2c-.91-.12-3.65-.18-8.24-.18h-8.81V24.61Zm-11.3,32.29V1h23.78q9,0,13,1.51a12.7,12.7,0,0,1,6.5,5.37,16,16,0,0,1,2.44,8.81A14.93,14.93,0,0,1,1128,27c-2.46,2.74-6.16,4.46-11.06,5.18a26.34,26.34,0,0,1,6,4.69A65.33,65.33,0,0,1,1129.4,46l6.84,10.91h-13.51l-8.17-12.16a74.42,74.42,0,0,0-6-8.23,8.69,8.69,0,0,0-3.39-2.34,18.92,18.92,0,0,0-5.67-.62h-2.3V56.9Z"/><path class="cls-1" d="M1139.49,38.7l11-1.06c.66,3.68,2,6.4,4,8.13a12.21,12.21,0,0,0,8.18,2.59q5.46,0,8.23-2.31a6.83,6.83,0,0,0,2.76-5.4,5.07,5.07,0,0,0-1.17-3.38,9.13,9.13,0,0,0-4.06-2.42c-1.32-.47-4.33-1.28-9-2.45q-9.08-2.25-12.74-5.53a14.55,14.55,0,0,1-5.15-11.26,14.41,14.41,0,0,1,2.42-8,15.17,15.17,0,0,1,7-5.67,28.15,28.15,0,0,1,11-1.94q10.53,0,15.86,4.62A16.29,16.29,0,0,1,1183.38,17l-11.3.5q-.72-4.33-3.11-6.21c-1.59-1.26-4-1.9-7.16-1.9a12.88,12.88,0,0,0-7.71,2,4.07,4.07,0,0,0-1.78,3.47,4.23,4.23,0,0,0,1.67,3.39c1.42,1.19,4.89,2.44,10.38,3.74a56,56,0,0,1,12.2,4,15.83,15.83,0,0,1,6.18,5.7,16.68,16.68,0,0,1,2.23,8.91,16.53,16.53,0,0,1-2.66,9,16.11,16.11,0,0,1-7.57,6.24,31.72,31.72,0,0,1-12.18,2q-10.59,0-16.3-4.9T1139.49,38.7Z"/><polygon class="cls-1" points="19.07 505.18 0 451.84 11.69 451.84 25.18 491.32 38.24 451.84 49.68 451.84 30.57 505.18 19.07 505.18"/><rect class="cls-2" x="208.79" y="451.83" width="10.77" height="53.34"/><polygon class="cls-1" points="383.23 505.18 383.23 451.84 422.78 451.84 422.78 460.84 393.98 460.84 393.98 472.68 420.79 472.68 420.79 481.67 393.98 481.67 393.98 496.19 423.81 496.19 423.81 505.18 383.23 505.18"/><polygon class="cls-1" points="587.46 505.18 587.46 460.84 571.63 460.84 571.63 451.84 614.06 451.84 614.06 460.84 598.23 460.84 598.23 505.18 587.46 505.18"/><polygon class="cls-1" points="761.01 505.18 761.01 451.84 771.51 451.84 793.33 487.46 793.33 451.84 803.36 451.84 803.36 505.18 792.54 505.18 771.05 470.39 771.05 505.18 761.01 505.18"/><path class="cls-1" d="M978.46,484.07l-7.36-19.8-7.2,19.8Zm19.82,21.11H986.57l-4.65-12.12H960.58l-4.4,12.12H944.76l20.77-53.34h11.39Z"/><polygon class="cls-1" points="1135.09 505.18 1135.09 451.84 1151.23 451.84 1160.91 488.22 1170.47 451.84 1186.62 451.84 1186.62 505.18 1176.61 505.18 1176.61 463.19 1166.05 505.18 1155.67 505.18 1145.12 463.19 1145.12 505.18 1135.09 505.18"/><path class="cls-1" d="M537,263.46a82,82,0,0,0-21.41-17.16,178.52,178.52,0,0,0-26.67-12.09,276.06,276.06,0,0,0-30.46-8.94q-15.92-3.71-32.63-7.43c-11.89-2.6-22.09-5.22-30.27-7.8a105.36,105.36,0,0,1-19.77-8.13c-4.73-2.68-8.14-5.75-10.19-9.17a24.37,24.37,0,0,1-3.05-12.62,28,28,0,0,1,3.67-14.29A33.92,33.92,0,0,1,377,154.7a59.65,59.65,0,0,1,18.06-7.6,102.6,102.6,0,0,1,25-2.76c39,0,59.33,14.55,62.22,44.49l.33,3.49h66l-.2-4.06c-.81-15.79-4.46-30.09-10.87-42.5A94.28,94.28,0,0,0,510.91,114c-11.24-8.61-24.91-15.22-40.59-19.66s-33.1-6.63-52.07-6.63c-17.44,0-33.6,2.11-48,6.29s-27.2,10.11-37.79,17.6A88,88,0,0,0,307,138.86,80.92,80.92,0,0,0,296.15,174a75.84,75.84,0,0,0-.12,11.36c.24,3.56.61,7.12,1.08,10.58,1.78,13.74,6.08,25.28,12.79,34.26a84.29,84.29,0,0,0,26.46,22.73,176.45,176.45,0,0,0,37.81,15.43c14.11,4.09,30,8.19,47.08,12.21,11.62,2.9,21.93,5.73,30.64,8.41A95.25,95.25,0,0,1,473,297.85a35.74,35.74,0,0,1,11.86,10.74,24.91,24.91,0,0,1,3.78,13.9,33,33,0,0,1-4.24,16.72A37.31,37.31,0,0,1,472,351.8,65.6,65.6,0,0,1,451.78,360a118.32,118.32,0,0,1-27.26,2.92,110.69,110.69,0,0,1-28.79-3.59,71,71,0,0,1-23-10.54A53.94,53.94,0,0,1,357,331.45c-4-6.9-6.41-15.18-7.28-24.64l-.32-3.51H284.1l.22,4.09c2.07,36.37,15.27,64.54,39.24,83.72,23.79,19,58.29,28.66,102.58,28.66A186.05,186.05,0,0,0,477.51,413c15.69-4.51,29.48-11.16,41-19.75a94.79,94.79,0,0,0,27.42-31.66c6.6-12.4,10-26.59,10-42.15,0-12.11-1.68-22.9-5-32A74.74,74.74,0,0,0,537,263.46Z"/><path class="cls-1" d="M1114,88.26,1113.1,91c-9.67,30.25-19.56,60.77-29.41,90.7-9.46,28.77-19.35,59.22-29.42,90.61l-22,72.24-21.61-72.33c-9.6-29-19.53-59.43-29.5-90.48-9.64-30-19.57-60.57-29.54-90.78l-.9-2.74H877.87L994.06,417.11l.93,2.65h74.5l117.13-331.5Z"/><path class="cls-1" d="M183,212.55a34.43,34.43,0,0,1-9.11,14.28,42.27,42.27,0,0,1-16.43,9q-10.4,3.3-25.89,3.79c-3.68.31-7.47.45-11.27.45H69.91V146.69h37.62c11.66,0,22.47.31,32.15.95,9.44.61,17.08,1.76,22.54,3.39a29.33,29.33,0,0,1,9.48,5.38,34.21,34.21,0,0,1,7.59,9.09,49.66,49.66,0,0,1,5,12.28A55.89,55.89,0,0,1,186.05,192a63.71,63.71,0,0,1-3,20.59Zm70.51-53.65A91.11,91.11,0,0,0,241,131.22a81.15,81.15,0,0,0-19.76-21.61,92.13,92.13,0,0,0-25.48-13.12A142.2,142.2,0,0,0,164.61,90a367,367,0,0,0-36.76-1.69H21.07A21.07,21.07,0,0,0,0,109.33V419.76H69.91V298.53h56.28c20.84,0,39.58-2.29,55.72-6.84,16.3-4.59,30.23-11.56,41.37-20.72a88.67,88.67,0,0,0,25.53-34.29c5.69-13.42,8.58-29.19,8.58-46.87A122.2,122.2,0,0,0,253.54,158.9Z"/><path class="cls-1" d="M779.76,351c-9.31,6.86-24,10.34-43.57,10.34h-57V278.68h53.4c11.61,0,21.55.86,29.55,2.55,7.7,1.63,13.89,4.15,18.44,7.45A27.16,27.16,0,0,1,790.12,301c2,5.23,3.08,11.65,3.08,19.11,0,14.09-4.4,24.19-13.44,30.87ZM679.22,146.68H730.7c10,0,18.51.81,25.28,2.41,6.54,1.54,11.89,3.82,15.89,6.75a23.94,23.94,0,0,1,8.34,10.7,43.7,43.7,0,0,1,2.71,16.09c0,13.73-3.81,23.48-11.29,29-7.87,5.75-20.58,8.67-37.81,8.67h-54.6V146.68ZM860.79,293.77A70.1,70.1,0,0,0,849,270.71a80.5,80.5,0,0,0-19.61-17.87,82.76,82.76,0,0,0-18-8.78c12-6.92,21.45-15.43,28-25.39,8.12-12.33,12.24-27.11,12.24-43.93,0-13.32-2.68-25.45-8-36.08a76.67,76.67,0,0,0-23.06-27.37c-9.9-7.42-22.13-13.2-36.36-17.15-14.07-3.9-30.09-5.88-47.56-5.88H630.87a21.08,21.08,0,0,0-21.08,21.07V419.76h130c40.94,0,72.24-8.65,93-25.77,21-17.28,31.72-42.06,31.72-73.62A93.19,93.19,0,0,0,860.79,293.77Z"/></g></g></svg>