<svg width="44" height="44" viewBox="0 0 44 44" fill="none" xmlns="http://www.w3.org/2000/svg">
<path d="M22 0C34.1307 0 44 9.86933 44 22C44 34.1307 34.1307 44 22 44C9.86933 44 0 34.1307 0 22C0 9.86933 9.86933 0 22 0ZM21.7885 10.1538C20.2823 10.1538 18.8099 10.6005 17.5576 11.4373C16.3052 12.2741 15.3292 13.4634 14.7528 14.8549C14.1764 16.2465 14.0256 17.7777 14.3194 19.2549C14.6132 20.7322 15.3385 22.0891 16.4036 23.1541C17.4686 24.2192 18.8255 24.9444 20.3028 25.2383C21.78 25.5321 23.3112 25.3813 24.7027 24.8049C26.0943 24.2285 27.2836 23.2525 28.1204 22.0001C28.9572 20.7478 29.4038 19.2754 29.4038 17.7692C29.4038 15.7495 28.6015 13.8125 27.1734 12.3843C25.7452 10.9562 23.8082 10.1538 21.7885 10.1538ZM22 40.6154C24.5676 40.6164 27.1075 40.085 29.4593 39.0546C31.811 38.0241 33.9235 36.5172 35.6633 34.6288C34.7283 29.7867 26.3302 28.7692 22 28.7692C17.6698 28.7692 9.27173 29.7867 8.33673 34.6278C10.0763 36.5165 12.1887 38.0237 14.5405 39.0543C16.8923 40.085 19.4323 40.6165 22 40.6154Z" fill="white"/>
</svg>
