<svg width="258" height="122" viewBox="0 0 258 122" fill="none" xmlns="http://www.w3.org/2000/svg">
<path fill-rule="evenodd" clip-rule="evenodd" d="M2.23734 112.511V115.572H3.41488C4.23915 115.572 4.82793 115.455 5.1812 115.455C5.4167 115.337 5.65222 115.219 5.88772 114.866C6.00547 114.63 6.12324 114.395 6.12324 114.041C6.12324 113.688 6.00547 113.335 5.76997 113.099C5.53447 112.864 5.29895 112.628 4.94569 112.628C4.71018 112.628 4.1214 112.511 3.41488 112.511H2.23734ZM0 121.46V110.627H3.53263C4.82793 110.627 5.76997 110.627 6.12324 110.744C6.71201 110.862 7.30078 111.215 7.65404 111.804C8.12506 112.393 8.24281 113.099 8.24281 113.924C8.24281 114.63 8.12506 115.101 7.88955 115.572C7.65403 116.043 7.30078 116.396 6.94751 116.632C6.59424 116.867 6.24099 117.103 5.76997 117.103C5.29895 117.221 4.47467 117.221 3.53263 117.221H2.23734V121.342H0V121.46Z" fill="white"/>
<path fill-rule="evenodd" clip-rule="evenodd" d="M12.7175 115.219H14.366C15.4258 115.219 16.0146 115.219 16.3679 115.101C16.6034 114.983 16.8389 114.866 16.9567 114.63C17.0744 114.395 17.1922 114.159 17.1922 113.806C17.1922 113.453 17.0744 113.099 16.9567 112.864C16.7211 112.628 16.4856 112.511 16.1324 112.393C15.8969 112.393 15.4258 112.393 14.4838 112.393H12.7175V115.219ZM10.4802 121.46V110.627H15.0726C16.2501 110.627 17.0744 110.744 17.5454 110.862C18.0165 111.097 18.4875 111.451 18.8407 111.922C19.194 112.393 19.3118 112.982 19.3118 113.57C19.3118 114.395 19.0762 115.101 18.6053 115.572C18.1341 116.161 17.4276 116.396 16.4856 116.632C16.9567 116.867 17.31 117.221 17.6632 117.574C18.0165 117.927 18.3697 118.516 18.9585 119.34L20.2537 121.46H17.6632L16.1324 119.105C15.5436 118.281 15.1903 117.692 14.9548 117.456C14.7193 117.221 14.4838 117.103 14.2483 116.985C14.0128 116.867 13.6595 116.867 13.1885 116.867H12.7175V121.342H10.4802V121.46Z" fill="white"/>
<path fill-rule="evenodd" clip-rule="evenodd" d="M22.4911 121.46V110.627H30.4983V112.511H24.6105V114.866H30.1451V116.75H24.6105V119.694H30.7338V121.46H22.4911Z" fill="white"/>
<path fill-rule="evenodd" clip-rule="evenodd" d="M33.3245 117.927L35.4441 117.692C35.5619 118.398 35.7973 118.987 36.2684 119.223C36.6216 119.576 37.2103 119.694 37.7991 119.694C38.5056 119.694 38.9768 119.576 39.4478 119.223C39.8009 118.869 40.0365 118.634 40.0365 118.163C40.0365 117.927 39.9187 117.692 39.8009 117.456C39.6832 117.221 39.4478 117.103 38.9766 116.985C38.7412 116.868 38.1525 116.75 37.2103 116.514C36.0328 116.279 35.2085 115.926 34.7375 115.455C34.031 114.866 33.7954 114.159 33.7954 113.217C33.7954 112.628 33.9132 112.157 34.2666 111.686C34.6198 111.215 34.9731 110.862 35.5619 110.627C36.1506 110.391 36.8572 110.273 37.6813 110.273C39.0944 110.273 40.0365 110.627 40.743 111.215C41.4496 111.804 41.8028 112.628 41.8028 113.57L39.5655 113.688C39.4478 113.099 39.2122 112.746 38.9766 112.511C38.6234 112.275 38.1525 112.157 37.5637 112.157C36.9749 112.157 36.386 112.275 36.0328 112.511C35.7973 112.628 35.6795 112.864 35.6795 113.217C35.6795 113.453 35.7973 113.688 36.0328 113.924C36.2684 114.159 36.9748 114.395 38.0347 114.63C39.0944 114.866 39.9187 115.101 40.3897 115.455C40.8608 115.69 41.3318 116.043 41.5672 116.514C41.8028 116.985 42.0383 117.574 42.0383 118.281C42.0383 118.869 41.9206 119.458 41.5672 120.047C41.214 120.636 40.743 120.989 40.1543 121.225C39.5655 121.46 38.7412 121.578 37.7991 121.578C36.386 121.578 35.3263 121.225 34.6198 120.636C33.9132 120.165 33.56 119.223 33.3245 117.927Z" fill="white"/>
<path fill-rule="evenodd" clip-rule="evenodd" d="M44.5112 117.927L46.6308 117.692C46.7486 118.398 46.984 118.987 47.4551 119.223C47.8083 119.576 48.3971 119.694 48.9858 119.694C49.6923 119.694 50.1633 119.576 50.6345 119.223C50.9876 118.869 51.2232 118.634 51.2232 118.163C51.2232 117.927 51.1054 117.692 50.9876 117.456C50.8699 117.221 50.6345 117.103 50.1633 116.985C49.9279 116.868 49.3392 116.75 48.3971 116.514C47.2195 116.279 46.3952 115.926 45.9242 115.455C45.2177 114.866 44.9821 114.159 44.9821 113.217C44.9821 112.628 45.0999 112.157 45.4533 111.686C45.8065 111.215 46.2774 110.862 46.7486 110.627C47.3373 110.391 48.0439 110.273 48.868 110.273C50.2811 110.273 51.2232 110.627 51.9298 111.215C52.6363 111.804 52.9895 112.628 52.9895 113.57L50.7522 113.688C50.6345 113.099 50.5167 112.746 50.1633 112.511C49.8101 112.275 49.3392 112.157 48.7504 112.157C48.1617 112.157 47.5727 112.275 47.2195 112.511C46.984 112.628 46.8662 112.864 46.8662 113.217C46.8662 113.453 46.984 113.688 47.2195 113.924C47.4551 114.159 48.1615 114.395 49.2214 114.63C50.2811 114.866 51.1054 115.101 51.5764 115.455C52.0475 115.69 52.5185 116.043 52.7539 116.514C52.9895 116.985 53.225 117.574 53.225 118.281C53.225 118.869 53.1073 119.458 52.7539 120.047C52.4007 120.636 51.9298 120.989 51.341 121.225C50.7522 121.46 49.9279 121.578 48.9858 121.578C47.5727 121.578 46.513 121.225 45.8065 120.636C45.0999 120.165 44.7467 119.223 44.5112 117.927Z" fill="white"/>
<path fill-rule="evenodd" clip-rule="evenodd" d="M55.8156 110.627H58.0528V116.514C58.0528 117.456 58.0528 118.045 58.1706 118.281C58.2884 118.752 58.5239 119.105 58.8771 119.34C59.2305 119.576 59.7014 119.694 60.2902 119.694C60.8789 119.694 61.3499 119.576 61.7033 119.34C62.0565 119.105 62.1742 118.752 62.292 118.398C62.4098 118.045 62.4098 117.456 62.4098 116.514V110.627H64.647V116.279C64.647 117.574 64.5293 118.516 64.4116 118.987C64.2939 119.576 64.0583 119.929 63.7051 120.4C63.3518 120.753 62.9986 121.107 62.4098 121.342C61.9387 121.578 61.2321 121.695 60.2902 121.695C59.2305 121.695 58.5239 121.578 57.9352 121.342C57.3462 121.107 56.9931 120.753 56.6397 120.4C56.2865 120.047 56.1687 119.576 56.051 119.223C55.9333 118.634 55.8156 117.692 55.8156 116.514V110.627Z" fill="white"/>
<path fill-rule="evenodd" clip-rule="evenodd" d="M68.6507 115.219H70.2994C71.3591 115.219 71.9479 115.219 72.3012 115.101C72.5366 114.983 72.7722 114.866 72.89 114.63C73.0076 114.395 73.1254 114.159 73.1254 113.806C73.1254 113.453 73.0076 113.099 72.89 112.864C72.6544 112.628 72.4188 112.511 72.0657 112.393C71.8301 112.393 71.3591 112.393 70.417 112.393H68.7685V115.219H68.6507ZM66.5311 121.46V110.627H71.1236C72.3012 110.627 73.1254 110.744 73.5965 110.862C74.0675 111.097 74.5385 111.451 74.8918 111.922C75.245 112.393 75.3628 112.982 75.3628 113.57C75.3628 114.395 75.1272 115.101 74.6563 115.572C74.1853 116.161 73.4787 116.396 72.5366 116.632C73.0076 116.867 73.361 117.221 73.7141 117.574C74.0675 117.927 74.4207 118.516 75.0094 119.34L76.3047 121.46H73.7141L72.1834 119.105C71.5947 118.281 71.2413 117.692 71.0058 117.456C70.7704 117.221 70.5348 117.103 70.2994 116.985C70.0638 116.867 69.7105 116.867 69.2395 116.867H68.7685V121.342H66.5311V121.46Z" fill="white"/>
<path fill-rule="evenodd" clip-rule="evenodd" d="M78.4244 121.46V110.627H86.4317V112.511H80.6618V114.866H86.0785V116.75H80.6618V119.694H86.6673V121.46H78.4244Z" fill="white"/>
<path fill-rule="evenodd" clip-rule="evenodd" d="M98.9138 117.574L101.033 117.339C101.151 118.045 101.387 118.634 101.858 118.869C102.211 119.223 102.8 119.34 103.388 119.34C104.095 119.34 104.566 119.223 105.037 118.869C105.39 118.516 105.626 118.281 105.626 117.81C105.626 117.574 105.508 117.339 105.39 117.103C105.272 116.867 105.037 116.75 104.566 116.632C104.331 116.514 103.742 116.396 102.8 116.161C101.622 115.925 100.798 115.572 100.327 115.101C99.6203 114.512 99.3847 113.806 99.3847 112.864C99.3847 112.275 99.5025 111.804 99.8559 111.333C100.209 110.862 100.68 110.509 101.151 110.273C101.74 110.038 102.446 109.92 103.271 109.92C104.684 109.92 105.626 110.273 106.332 110.862C107.039 111.451 107.392 112.275 107.392 113.217L105.155 113.335C105.037 112.746 104.919 112.393 104.566 112.157C104.213 111.922 103.742 111.804 103.153 111.804C102.564 111.804 101.975 111.922 101.622 112.157C101.387 112.275 101.269 112.511 101.269 112.864C101.269 113.099 101.387 113.335 101.622 113.57C101.858 113.806 102.564 114.041 103.624 114.277C104.684 114.512 105.508 114.748 105.979 115.101C106.45 115.337 106.921 115.69 107.156 116.161C107.392 116.632 107.628 117.221 107.628 117.927C107.628 118.516 107.51 119.105 107.156 119.694C106.803 120.282 106.332 120.636 105.744 120.871C105.155 121.107 104.331 121.224 103.388 121.224C101.975 121.224 100.916 120.871 100.209 120.282C99.5025 119.811 99.1493 118.869 98.9138 117.574Z" fill="white"/>
<path fill-rule="evenodd" clip-rule="evenodd" d="M112.573 121.107V116.632L108.57 110.273H111.16L113.633 114.63L116.224 110.273H118.697L114.693 116.632V121.107H112.573Z" fill="white"/>
<path fill-rule="evenodd" clip-rule="evenodd" d="M119.521 117.574L121.64 117.339C121.758 118.045 121.994 118.634 122.465 118.869C122.818 119.223 123.407 119.34 123.995 119.34C124.702 119.34 125.173 119.223 125.644 118.869C125.997 118.516 126.233 118.281 126.233 117.81C126.233 117.574 126.115 117.339 125.997 117.103C125.879 116.867 125.526 116.75 125.173 116.632C124.937 116.514 124.349 116.396 123.407 116.161C122.229 115.925 121.405 115.572 120.934 115.101C120.227 114.512 119.992 113.806 119.992 112.864C119.992 112.275 120.11 111.804 120.463 111.333C120.816 110.862 121.287 110.509 121.876 110.273C122.465 110.038 123.171 109.92 123.995 109.92C125.408 109.92 126.35 110.273 127.057 110.862C127.764 111.451 128.117 112.275 128.117 113.217L125.879 113.335C125.762 112.746 125.526 112.393 125.291 112.157C124.937 111.922 124.466 111.804 123.878 111.804C123.289 111.804 122.7 111.922 122.347 112.157C122.111 112.275 121.994 112.511 121.994 112.864C121.994 113.099 122.111 113.335 122.347 113.57C122.582 113.806 123.289 114.041 124.349 114.277C125.408 114.512 126.233 114.748 126.704 115.101C127.175 115.337 127.646 115.69 127.881 116.161C128.117 116.632 128.352 117.221 128.352 117.927C128.352 118.516 128.235 119.105 127.881 119.694C127.528 120.282 127.057 120.636 126.468 120.871C125.879 121.107 125.055 121.224 124.113 121.224C122.7 121.224 121.64 120.871 120.934 120.282C120.11 119.811 119.638 118.869 119.521 117.574Z" fill="white"/>
<path fill-rule="evenodd" clip-rule="evenodd" d="M133.063 121.107V112.157H129.883V110.273H138.479V112.157H135.3V121.107H133.063Z" fill="white"/>
<path fill-rule="evenodd" clip-rule="evenodd" d="M140.363 121.107V110.273H148.371V112.157H142.483V114.512H148.017V116.397H142.483V119.34H148.606V121.107H140.363Z" fill="white"/>
<path fill-rule="evenodd" clip-rule="evenodd" d="M150.726 121.107V110.273H153.905L155.907 117.692L157.909 110.273H161.088V121.107H159.086V112.628L156.967 121.107H154.847L152.728 112.628V121.107H150.726Z" fill="white"/>
<path fill-rule="evenodd" clip-rule="evenodd" d="M176.75 116.397V119.34H178.752C179.576 119.34 180.047 119.34 180.282 119.223C180.636 119.223 180.871 118.987 181.106 118.752C181.341 118.516 181.46 118.163 181.46 117.81C181.46 117.456 181.341 117.221 181.225 116.985C181.106 116.75 180.871 116.632 180.517 116.514C180.163 116.397 179.576 116.397 178.634 116.397H176.75ZM176.75 112.157V114.63H178.163C178.987 114.63 179.576 114.63 179.693 114.63C180.047 114.63 180.4 114.512 180.517 114.277C180.752 114.042 180.871 113.806 180.871 113.453C180.871 113.099 180.752 112.864 180.636 112.628C180.4 112.393 180.163 112.275 179.812 112.275C179.576 112.275 178.987 112.275 177.926 112.275H176.75V112.157ZM174.63 110.273H178.987C179.812 110.273 180.517 110.273 180.871 110.391C181.341 110.509 181.695 110.627 182.049 110.862C182.402 111.098 182.638 111.333 182.873 111.804C183.108 112.157 183.227 112.628 183.227 113.099C183.227 113.57 183.108 114.042 182.873 114.512C182.638 114.983 182.284 115.219 181.814 115.455C182.519 115.69 182.99 115.926 183.343 116.397C183.697 116.868 183.932 117.456 183.932 118.045C183.932 118.516 183.816 118.987 183.579 119.458C183.343 119.929 182.99 120.282 182.638 120.518C182.284 120.753 181.695 120.989 181.225 120.989C180.871 120.989 179.928 121.107 178.634 121.107H174.983V110.273H174.63Z" fill="white"/>
<path fill-rule="evenodd" clip-rule="evenodd" d="M185.581 110.273H187.818V116.161C187.818 117.103 187.818 117.692 187.936 117.927C188.053 118.398 188.29 118.752 188.642 118.987C188.996 119.223 189.466 119.34 190.055 119.34C190.644 119.34 191.116 119.223 191.468 118.987C191.822 118.752 191.94 118.398 192.057 118.045C192.175 117.692 192.175 117.103 192.175 116.161V110.156H194.413V115.808C194.413 117.103 194.294 118.045 194.177 118.516C194.059 119.105 193.824 119.458 193.47 119.929C193.118 120.282 192.764 120.636 192.175 120.871C191.587 121.107 190.998 121.224 190.055 121.224C188.996 121.224 188.29 121.107 187.701 120.871C187.112 120.636 186.758 120.282 186.405 119.929C186.053 119.576 185.934 119.105 185.816 118.751C185.699 118.163 185.581 117.221 185.581 116.043V110.273Z" fill="white"/>
<path d="M199.476 110.273H197.239V121.107H199.476V110.273Z" fill="white"/>
<path fill-rule="evenodd" clip-rule="evenodd" d="M202.891 121.107V110.391H205.128V119.34H210.545V121.107H202.891Z" fill="white"/>
<path fill-rule="evenodd" clip-rule="evenodd" d="M215.137 112.157V119.34H216.787C217.374 119.34 217.846 119.34 218.081 119.223C218.435 119.105 218.787 118.987 219.024 118.752C219.259 118.516 219.494 118.163 219.611 117.692C219.73 117.221 219.848 116.514 219.848 115.69C219.848 114.866 219.73 114.159 219.611 113.806C219.494 113.335 219.259 112.982 219.024 112.746C218.787 112.511 218.435 112.275 217.963 112.275C217.611 112.157 217.022 112.157 216.198 112.157H215.137ZM213.018 110.273H217.022C217.963 110.273 218.552 110.391 219.141 110.509C219.73 110.744 220.319 110.98 220.789 111.451C221.261 111.922 221.613 112.511 221.85 113.217C222.085 113.924 222.202 114.748 222.202 115.808C222.202 116.75 222.085 117.456 221.85 118.163C221.613 118.987 221.143 119.576 220.672 120.047C220.319 120.4 219.73 120.753 219.141 120.871C218.67 120.989 217.963 121.107 217.257 121.107H213.018V110.273Z" fill="white"/>
<path fill-rule="evenodd" clip-rule="evenodd" d="M224.204 121.107V110.273H232.212V112.157H226.325V114.512H231.858V116.397H226.325V119.34H232.447V121.107H224.204Z" fill="white"/>
<path fill-rule="evenodd" clip-rule="evenodd" d="M236.333 114.866H237.981C239.041 114.866 239.63 114.866 239.983 114.748C240.218 114.63 240.454 114.512 240.572 114.277C240.691 114.042 240.807 113.806 240.807 113.453C240.807 113.099 240.691 112.746 240.572 112.511C240.337 112.275 240.102 112.157 239.748 112.04C239.513 112.04 239.042 112.04 238.1 112.04H236.333V114.866ZM234.214 121.107V110.273H238.805C239.983 110.273 240.807 110.391 241.28 110.509C241.75 110.744 242.22 111.098 242.574 111.569C242.928 112.04 243.045 112.628 243.045 113.217C243.045 114.042 242.809 114.748 242.339 115.219C241.867 115.808 241.161 116.043 240.218 116.279C240.691 116.514 241.043 116.868 241.396 117.221C241.75 117.574 242.104 118.163 242.693 118.987L243.987 121.107H241.28L239.748 118.752C239.159 117.927 238.805 117.339 238.57 117.103C238.335 116.868 238.1 116.75 237.864 116.632C237.629 116.514 237.276 116.514 236.803 116.514H236.333V120.989H234.214V121.107Z" fill="white"/>
<path fill-rule="evenodd" clip-rule="evenodd" d="M245.4 117.574L247.519 117.339C247.637 118.045 247.873 118.634 248.343 118.869C248.697 119.223 249.286 119.34 249.875 119.34C250.582 119.34 251.053 119.223 251.523 118.869C251.877 118.516 252.112 118.281 252.112 117.81C252.112 117.574 251.995 117.339 251.877 117.103C251.758 116.867 251.523 116.75 251.053 116.632C250.817 116.514 250.228 116.396 249.286 116.161C248.108 115.925 247.284 115.572 246.813 115.101C246.106 114.512 245.871 113.806 245.871 112.864C245.871 112.275 245.989 111.804 246.343 111.333C246.695 110.862 247.049 110.509 247.637 110.273C248.226 110.038 248.932 109.92 249.756 109.92C251.169 109.92 252.112 110.273 252.819 110.862C253.525 111.451 253.879 112.275 253.879 113.217L251.642 113.335C251.523 112.746 251.288 112.393 251.053 112.157C250.699 111.922 250.228 111.804 249.639 111.804C249.051 111.804 248.462 111.922 248.108 112.157C247.873 112.275 247.756 112.511 247.756 112.864C247.756 113.099 247.873 113.335 248.108 113.57C248.343 113.806 249.051 114.041 250.11 114.277C251.169 114.512 251.995 114.748 252.466 115.101C252.936 115.337 253.408 115.69 253.644 116.161C253.879 116.632 254.114 117.221 254.114 117.927C254.114 118.516 253.995 119.105 253.644 119.694C253.29 120.282 252.819 120.636 252.23 120.871C251.642 121.107 250.817 121.224 249.875 121.224C248.462 121.224 247.402 120.871 246.695 120.282C245.989 119.811 245.635 118.869 245.4 117.574Z" fill="white"/>
<path fill-rule="evenodd" clip-rule="evenodd" d="M160.195 50.4405C158.478 48.5518 156.418 46.8348 154.185 45.6329C151.953 44.2593 149.378 43.2291 146.631 42.1989C143.884 41.1687 140.965 40.3102 138.046 39.6234C135.127 38.9366 132.036 38.2499 128.774 37.5631C125.34 36.8763 122.593 36.0178 120.189 35.331C117.957 34.6442 116.068 33.7857 114.523 33.0989C113.149 32.4121 112.291 31.5536 111.604 30.5234C111.089 29.4932 110.746 28.2913 110.746 26.9177C110.746 25.3724 111.089 23.9989 111.776 22.9687C112.463 21.7668 113.493 20.7366 114.866 19.8781C116.24 19.0196 117.957 18.3328 120.017 17.646C122.078 17.1309 124.482 16.7875 127.057 16.7875C138.046 16.7875 143.884 20.9083 144.57 29.3215L144.742 30.3517H163.457V29.1498C163.285 24.6857 162.255 20.7366 160.367 17.1309C158.478 13.697 156.074 10.6063 152.812 8.20257C149.721 5.79878 145.772 3.91012 141.308 2.70822C136.844 1.50633 132.036 0.81955 126.542 0.81955C121.563 0.81955 117.099 1.33465 112.978 2.53654C108.857 3.73843 105.251 5.4554 102.332 7.51579C99.2419 9.57617 96.8381 12.3233 95.1211 15.2422C93.4041 18.1611 92.3739 21.5951 92.0305 25.2008C91.8588 26.2309 91.8588 27.4328 92.0305 28.463C92.0305 29.4932 92.2022 30.5234 92.3739 31.3819C92.889 35.331 94.0909 38.5932 95.9796 40.997C97.8683 43.5725 100.444 45.6329 103.534 47.3499C106.625 49.0669 110.231 50.6122 114.18 51.6423C118.129 52.8442 122.593 53.8744 127.4 55.0763C130.663 55.9348 133.582 56.6216 135.985 57.4801C138.389 58.1669 140.45 59.0254 141.995 60.0556C143.54 60.9141 144.57 61.9443 145.429 63.1462C146.116 64.1764 146.459 65.5499 146.459 67.0952C146.459 68.8122 146.116 70.5292 145.257 71.9028C144.399 73.2764 143.197 74.4783 141.823 75.5085C140.278 76.5387 138.389 77.2255 136.157 77.7405C133.925 78.2556 131.35 78.599 128.431 78.599C125.512 78.599 122.765 78.2556 120.361 77.5688C117.957 76.882 115.725 75.8519 113.836 74.65C111.948 73.2764 110.574 71.7311 109.372 69.8424C108.17 67.9537 107.483 65.5499 107.312 62.8028L107.14 61.7726H88.7682V62.9745C89.2833 73.2764 93.0607 81.1745 99.9287 86.6689C106.625 91.9915 116.412 94.7387 128.946 94.7387C134.097 94.7387 139.076 94.0519 143.54 92.85C148.004 91.6481 151.782 89.7595 155.044 87.3557C158.306 84.9519 160.882 81.8613 162.77 78.4273C164.659 74.9934 165.518 70.8726 165.518 66.5801C165.518 63.1462 165.002 60.0556 164.144 57.4801C163.285 54.5612 161.912 52.3291 160.195 50.4405Z" fill="white"/>
<path fill-rule="evenodd" clip-rule="evenodd" d="M51.8529 36.0178C51.3378 37.5631 50.4793 38.9367 49.2775 39.9669C48.0756 40.9971 46.5303 41.8556 44.6416 42.5424C42.7529 43.2292 40.1774 43.5726 37.2585 43.5726C36.2284 43.7443 35.1982 43.7443 33.9963 43.7443H19.7453V17.3027H30.3906C33.6529 17.3027 36.7435 17.4744 39.4906 17.6461C42.2378 17.8178 44.2982 18.1611 45.8435 18.6762C46.702 19.0196 47.7322 19.5347 48.5907 20.2215C49.4492 20.9083 50.1359 21.7668 50.651 22.797C51.1661 23.8272 51.6812 25.0291 52.0246 26.231C52.368 27.4329 52.5397 28.8065 52.5397 30.1801C52.7114 32.4121 52.5397 34.4725 51.8529 36.0178ZM71.77 20.9083C71.0832 18.1612 69.8813 15.5857 68.1643 13.0102C66.619 10.4347 64.7303 8.54604 62.67 6.82906C60.6096 5.28377 58.2058 4.08184 55.4586 3.05165C52.8831 2.19316 49.7926 1.50638 46.702 1.16299C43.6114 0.819592 40.0057 0.647888 36.4001 0.647888H12.7056H9.44336H6.18109C2.91881 0.647888 0.171631 3.39507 0.171631 6.65734V9.7479V13.1819V94.3953H19.917V60.2273H35.885C41.7227 60.2273 47.0454 59.5405 51.6812 58.3386C56.3171 56.965 60.2662 55.0764 63.3568 52.5009C66.4473 49.9254 69.0228 46.6631 70.5681 42.8858C72.1134 39.1084 72.9719 34.6442 72.9719 29.665C72.9719 26.5744 72.6285 23.6555 71.77 20.9083Z" fill="white"/>
<path fill-rule="evenodd" clip-rule="evenodd" d="M233.338 75.1651C230.763 77.0538 226.642 78.084 220.976 78.084H204.837V54.7329H219.946C223.208 54.7329 225.955 54.9046 228.359 55.4197C230.591 55.9348 232.308 56.6216 233.51 57.4801C234.712 58.3386 235.571 59.5405 236.257 60.9141C236.772 62.4594 237.116 64.1764 237.116 66.2367C237.116 70.3575 235.914 73.2764 233.338 75.1651ZM205.008 17.4743H219.603C222.35 17.4743 224.754 17.646 226.814 18.1611C228.703 18.6762 230.248 19.1913 231.278 20.0498C232.308 20.9083 233.167 21.7668 233.682 23.1404C234.197 24.3423 234.369 25.8876 234.369 27.6046C234.369 31.5536 233.339 34.3008 231.106 35.8461C228.874 37.3914 225.269 38.2499 220.461 38.2499H205.008V17.4743ZM256.174 59.0254C255.488 56.6216 254.286 54.3895 252.912 52.5009C251.367 50.6122 249.478 48.8952 247.418 47.5216C245.873 46.4914 244.156 45.6329 242.267 45.1178C245.701 43.2291 248.276 40.8253 250.165 37.9065C252.397 34.4725 253.599 30.18 253.599 25.5442C253.599 21.7668 252.912 18.3328 251.367 15.414C249.822 12.4951 247.761 9.74791 244.842 7.68752C242.095 5.62714 238.661 3.91014 234.54 2.87995C230.591 1.84975 226.127 1.16296 221.148 1.16296H197.797H192.989H191.272C188.01 1.16296 185.263 3.91014 185.263 7.17241V8.54602V13.697V94.9104H222.006C233.51 94.9104 242.439 92.5066 248.276 87.6991C254.286 82.8915 257.205 75.8519 257.205 66.9235C257.376 63.833 257.033 61.4292 256.174 59.0254Z" fill="white"/>
</svg>
