<svg xmlns="http://www.w3.org/2000/svg" viewBox="0 0 1074.8 457.58"><defs><style>.cls-1,.cls-2{fill:#ec2024;}.cls-1,.cls-3{fill-rule:evenodd;}.cls-3{fill:#231f20;}</style></defs><g id="Layer_2" data-name="Layer 2"><g id="Layer_1-2" data-name="Layer 1"><path class="cls-1" d="M10.24,9.43V23.82h5.6c4,0,6.72-.27,8.09-.79a6.78,6.78,0,0,0,3.2-2.5,6.89,6.89,0,0,0,1.15-3.94A6.56,6.56,0,0,0,26.66,12a7.06,7.06,0,0,0-4.11-2.25,49.38,49.38,0,0,0-7.38-.35ZM0,51.54V.87H16.42q9.33,0,12.17.75a13.24,13.24,0,0,1,7.29,5,15.69,15.69,0,0,1,2.95,9.88,16.52,16.52,0,0,1-1.7,7.84,13.83,13.83,0,0,1-4.31,5,14.75,14.75,0,0,1-5.3,2.4,58.66,58.66,0,0,1-10.61.73H10.24V51.54Z"/><path class="cls-1" d="M57.49,22.29h7.58c4.91,0,8-.2,9.19-.62a5.57,5.57,0,0,0,2.88-2.14,6.61,6.61,0,0,0,1-3.8A6.07,6.07,0,0,0,76.8,11.6,6.3,6.3,0,0,0,73,9.6c-.84-.1-3.33-.16-7.48-.16h-8V22.29ZM47.26,51.54V.86H68.81q8.1,0,11.8,1.37a11.59,11.59,0,0,1,5.9,4.86,14.59,14.59,0,0,1,2.2,8,13.5,13.5,0,0,1-3.35,9.42q-3.35,3.72-10,4.69a23.74,23.74,0,0,1,5.48,4.25,57.41,57.41,0,0,1,5.81,8.23l6.21,9.88H80.59l-7.4-11a66.81,66.81,0,0,0-5.4-7.45A7.78,7.78,0,0,0,64.72,31a17.26,17.26,0,0,0-5.15-.56H57.49V51.54Z"/><polygon class="cls-1" points="98.36 51.54 98.36 0.86 135.94 0.86 135.94 9.44 108.59 9.44 108.59 20.67 134.04 20.67 134.04 29.22 108.59 29.22 108.59 43.01 136.91 43.01 136.91 51.54 98.36 51.54"/><path class="cls-1" d="M143,35.05l10-1c.6,3.34,1.82,5.8,3.65,7.36A11,11,0,0,0,164,43.81c3.29,0,5.78-.71,7.44-2.1A6.17,6.17,0,0,0,174,36.82a4.56,4.56,0,0,0-1.06-3.06,8.36,8.36,0,0,0-3.67-2.2c-1.2-.42-3.94-1.15-8.2-2.22-5.49-1.35-9.33-3-11.55-5a13.2,13.2,0,0,1-4.66-10.2A13,13,0,0,1,147,6.9a13.69,13.69,0,0,1,6.32-5.14,25.53,25.53,0,0,1,10-1.76c6.35,0,11.16,1.4,14.36,4.18a14.78,14.78,0,0,1,5.07,11.17l-10.23.45q-.66-3.92-2.82-5.62c-1.43-1.14-3.6-1.72-6.48-1.72a11.58,11.58,0,0,0-7,1.84,3.7,3.7,0,0,0-1.63,3.15,3.84,3.84,0,0,0,1.52,3.07q1.94,1.62,9.41,3.39a49.7,49.7,0,0,1,11,3.64,14.25,14.25,0,0,1,5.6,5.16,15,15,0,0,1,2,8.07,15,15,0,0,1-2.42,8.16,14.5,14.5,0,0,1-6.85,5.65,28.59,28.59,0,0,1-11,1.85q-9.63,0-14.77-4.43T143,35.05Z"/><path class="cls-1" d="M190.22,35.05l9.95-1c.62,3.34,1.82,5.8,3.65,7.36a11.06,11.06,0,0,0,7.43,2.36c3.28,0,5.76-.71,7.43-2.1a6.17,6.17,0,0,0,2.52-4.89,4.52,4.52,0,0,0-1.07-3.06,8.3,8.3,0,0,0-3.67-2.2c-1.2-.42-3.93-1.15-8.19-2.22q-8.24-2-11.54-5a13.15,13.15,0,0,1-4.67-10.2,13,13,0,0,1,2.18-7.24,13.77,13.77,0,0,1,6.33-5.14,25.49,25.49,0,0,1,10-1.76q9.54,0,14.36,4.18A14.78,14.78,0,0,1,230,15.35l-10.24.45c-.44-2.61-1.37-4.48-2.81-5.62s-3.61-1.72-6.49-1.72a11.62,11.62,0,0,0-7,1.84,3.69,3.69,0,0,0-1.62,3.15,3.86,3.86,0,0,0,1.51,3.07q2,1.62,9.41,3.39a49.64,49.64,0,0,1,11.05,3.64,14.25,14.25,0,0,1,5.6,5.16,15.12,15.12,0,0,1,2,8.07A14.9,14.9,0,0,1,229,44.94a14.5,14.5,0,0,1-6.85,5.65,28.54,28.54,0,0,1-11,1.85c-6.42,0-11.33-1.48-14.77-4.43S190.88,40.72,190.22,35.05Z"/><path class="cls-1" d="M240,.86h10.24V28.31a56,56,0,0,0,.38,8.47,8.13,8.13,0,0,0,3.13,5,10.92,10.92,0,0,0,6.76,1.87c2.89,0,5.09-.58,6.56-1.77a6.94,6.94,0,0,0,2.66-4.37,57,57,0,0,0,.45-8.61V.86h10.24V27.48q0,9.14-.83,12.9a14.14,14.14,0,0,1-3.07,6.35,15.35,15.35,0,0,1-6,4.15,26,26,0,0,1-9.74,1.53c-4.85,0-8.51-.55-11-1.67a16,16,0,0,1-5.93-4.36A14,14,0,0,1,241,40.76a61.41,61.41,0,0,1-1-12.87Z"/><path class="cls-1" d="M301.44,22.29H309c4.91,0,8-.2,9.2-.62a5.5,5.5,0,0,0,2.87-2.14,6.62,6.62,0,0,0,1-3.8,6.07,6.07,0,0,0-1.37-4.13,6.32,6.32,0,0,0-3.86-2c-.83-.1-3.31-.16-7.47-.16h-8V22.29ZM291.21,51.54V.86h21.54c5.41,0,9.36.45,11.81,1.37a11.57,11.57,0,0,1,5.89,4.86,14.51,14.51,0,0,1,2.21,8,13.46,13.46,0,0,1-3.36,9.42c-2.22,2.48-5.57,4-10,4.69a23.89,23.89,0,0,1,5.47,4.25,57.27,57.27,0,0,1,5.82,8.23l6.2,9.88H324.54l-7.4-11a69.65,69.65,0,0,0-5.4-7.45A7.88,7.88,0,0,0,308.66,31a17.22,17.22,0,0,0-5.14-.56h-2.08V51.54Z"/><polygon class="cls-1" points="342.31 51.54 342.31 0.86 379.88 0.86 379.88 9.44 352.54 9.44 352.54 20.67 377.99 20.67 377.99 29.22 352.54 29.22 352.54 43.01 380.85 43.01 380.85 51.54 342.31 51.54"/><path class="cls-1" d="M406.61,35.05l9.95-1c.61,3.34,1.82,5.8,3.65,7.36a11.06,11.06,0,0,0,7.43,2.36c3.28,0,5.76-.71,7.44-2.1a6.19,6.19,0,0,0,2.51-4.89,4.52,4.52,0,0,0-1.07-3.06,8.3,8.3,0,0,0-3.67-2.2c-1.2-.42-3.93-1.15-8.19-2.22q-8.24-2-11.56-5a13.2,13.2,0,0,1-4.65-10.2,13.07,13.07,0,0,1,2.18-7.24A13.77,13.77,0,0,1,417,1.76a25.49,25.49,0,0,1,10-1.76q9.54,0,14.37,4.18a14.81,14.81,0,0,1,5.06,11.17l-10.24.45q-.64-3.92-2.81-5.62c-1.43-1.14-3.6-1.72-6.49-1.72a11.62,11.62,0,0,0-7,1.84,3.69,3.69,0,0,0-1.62,3.15,3.84,3.84,0,0,0,1.52,3.07q1.94,1.62,9.4,3.39a49.94,49.94,0,0,1,11.06,3.64,14.36,14.36,0,0,1,5.59,5.16,15,15,0,0,1,2,8.07,14.9,14.9,0,0,1-2.42,8.16,14.45,14.45,0,0,1-6.85,5.65,28.5,28.5,0,0,1-11,1.85q-9.61,0-14.78-4.43T406.61,35.05Z"/><polygon class="cls-1" points="469.74 51.54 469.74 30.21 451.17 0.86 463.17 0.86 475.11 20.91 486.78 0.86 498.57 0.86 479.94 30.29 479.94 51.54 469.74 51.54"/><path class="cls-1" d="M501.06,35.05l10-1c.6,3.34,1.81,5.8,3.65,7.36a11,11,0,0,0,7.41,2.36c3.3,0,5.78-.71,7.45-2.1a6.17,6.17,0,0,0,2.5-4.89,4.65,4.65,0,0,0-1-3.06,8.4,8.4,0,0,0-3.68-2.2c-1.21-.42-3.94-1.15-8.21-2.22-5.47-1.35-9.33-3-11.54-5a13.2,13.2,0,0,1-4.66-10.2,13.07,13.07,0,0,1,2.18-7.24,13.75,13.75,0,0,1,6.34-5.14A25.46,25.46,0,0,1,521.4,0q9.52,0,14.36,4.18a14.78,14.78,0,0,1,5.06,11.17l-10.23.45c-.45-2.61-1.38-4.48-2.82-5.62s-3.6-1.72-6.48-1.72a11.63,11.63,0,0,0-7,1.84,3.71,3.71,0,0,0-1.61,3.15,3.86,3.86,0,0,0,1.51,3.07q1.95,1.62,9.4,3.39a49.64,49.64,0,0,1,11,3.64,14.25,14.25,0,0,1,5.6,5.16,15,15,0,0,1,2,8.07,14.83,14.83,0,0,1-2.43,8.16A14.4,14.4,0,0,1,533,50.59a28.5,28.5,0,0,1-11,1.85q-9.63,0-14.76-4.43T501.06,35.05Z"/><polygon class="cls-1" points="562.29 51.54 562.29 9.44 547.25 9.44 547.25 0.86 587.53 0.86 587.53 9.44 572.53 9.44 572.53 51.54 562.29 51.54"/><polygon class="cls-1" points="594.13 51.54 594.13 0.86 631.71 0.86 631.71 9.44 604.38 9.44 604.38 20.67 629.81 20.67 629.81 29.22 604.38 29.22 604.38 43.01 632.68 43.01 632.68 51.54 594.13 51.54"/><polygon class="cls-1" points="641.23 51.54 641.23 0.86 656.53 0.86 665.73 35.43 674.83 0.86 690.18 0.86 690.18 51.54 680.67 51.54 680.67 11.65 670.61 51.54 660.76 51.54 650.73 11.65 650.73 51.54 641.23 51.54"/><path class="cls-1" d="M730.29,29.45V43h9.47a45.22,45.22,0,0,0,7-.32,6,6,0,0,0,5.16-6.33,6.69,6.69,0,0,0-1.11-3.87,6.37,6.37,0,0,0-3.2-2.31q-2.1-.73-9.07-.73Zm0-20.15V21H737c4,0,6.45-.05,7.42-.16A6.79,6.79,0,0,0,748.55,19a5.32,5.32,0,0,0,1.5-4,5.53,5.53,0,0,0-1.29-3.81,5.87,5.87,0,0,0-3.85-1.78c-1-.11-3.92-.17-8.75-.17ZM720.05.86h20.26a57.94,57.94,0,0,1,9,.5,13.33,13.33,0,0,1,5.28,2.1,13.09,13.09,0,0,1,3.89,4.22A11.59,11.59,0,0,1,760,13.61a11.75,11.75,0,0,1-1.93,6.54,11.71,11.71,0,0,1-5.2,4.46A13.36,13.36,0,0,1,760,29.22a12.21,12.21,0,0,1,2.49,7.63,15.13,15.13,0,0,1-1.61,6.73,13.67,13.67,0,0,1-4.39,5.21,14.4,14.4,0,0,1-6.86,2.41q-2.56.28-12.35.35H720.05Z"/><path class="cls-1" d="M771.07.86h10.25V28.31a56,56,0,0,0,.38,8.47,8.16,8.16,0,0,0,3.12,5,10.9,10.9,0,0,0,6.76,1.87c2.9,0,5.1-.58,6.57-1.77a7,7,0,0,0,2.67-4.37,58.74,58.74,0,0,0,.44-8.61V.86h10.23V27.48q0,9.14-.83,12.9a14.23,14.23,0,0,1-3.06,6.35,15.5,15.5,0,0,1-6,4.15,26.1,26.1,0,0,1-9.76,1.53q-7.25,0-11-1.67A15.82,15.82,0,0,1,775,46.38a13.78,13.78,0,0,1-2.88-5.62,62.11,62.11,0,0,1-1-12.87Z"/><rect class="cls-2" x="821.96" y="0.86" width="10.24" height="50.68"/><polygon class="cls-1" points="842.23 51.54 842.23 1.28 852.46 1.28 852.46 43.01 877.9 43.01 877.9 51.54 842.23 51.54"/><path class="cls-1" d="M895.4,9.43V43H903a27.37,27.37,0,0,0,6.19-.49,9.42,9.42,0,0,0,4.13-2.11A10.66,10.66,0,0,0,916,35.52a33.05,33.05,0,0,0,1-9.29,30.21,30.21,0,0,0-1-9,11.33,11.33,0,0,0-2.91-4.9,9.58,9.58,0,0,0-4.72-2.4A46.54,46.54,0,0,0,900,9.43ZM885.16.87h18.71a36.19,36.19,0,0,1,9.64,1,16.76,16.76,0,0,1,7.64,4.66A22,22,0,0,1,926,14.71a37.26,37.26,0,0,1,1.67,12,33.34,33.34,0,0,1-1.55,10.8,22.59,22.59,0,0,1-5.43,9,17.87,17.87,0,0,1-7.2,4,30.76,30.76,0,0,1-9.06,1.07H885.16Z"/><polygon class="cls-1" points="936.34 51.54 936.34 0.86 973.92 0.86 973.92 9.44 946.58 9.44 946.58 20.67 972.02 20.67 972.02 29.22 946.58 29.22 946.58 43.01 974.88 43.01 974.88 51.54 936.34 51.54"/><path class="cls-1" d="M993.83,22.29h7.56c4.92,0,8-.2,9.2-.62a5.49,5.49,0,0,0,2.88-2.14,6.62,6.62,0,0,0,1-3.8,6.07,6.07,0,0,0-1.37-4.13,6.35,6.35,0,0,0-3.86-2c-.83-.1-3.31-.16-7.47-.16h-8V22.29ZM983.59,51.54V.86h21.54q8.13,0,11.81,1.37a11.55,11.55,0,0,1,5.9,4.86,14.51,14.51,0,0,1,2.21,8,13.5,13.5,0,0,1-3.36,9.42q-3.35,3.72-10,4.69a23.74,23.74,0,0,1,5.48,4.25,58.93,58.93,0,0,1,5.82,8.23l6.19,9.88h-12.23l-7.4-11a67.78,67.78,0,0,0-5.41-7.45,7.78,7.78,0,0,0-3.07-2.12,17.22,17.22,0,0,0-5.14-.56h-2.08V51.54Z"/><path class="cls-1" d="M1032.11,35.05l9.94-1c.61,3.34,1.82,5.8,3.66,7.36a11,11,0,0,0,7.42,2.36c3.29,0,5.77-.71,7.44-2.1a6.19,6.19,0,0,0,2.51-4.89,4.56,4.56,0,0,0-1.06-3.06,8.34,8.34,0,0,0-3.68-2.2c-1.2-.42-3.92-1.15-8.19-2.22q-8.22-2-11.54-5a13.16,13.16,0,0,1-4.68-10.2,13,13,0,0,1,2.2-7.24,13.64,13.64,0,0,1,6.32-5.14,25.49,25.49,0,0,1,10-1.76q9.54,0,14.37,4.18a14.78,14.78,0,0,1,5.06,11.17l-10.23.45q-.66-3.92-2.82-5.62c-1.44-1.14-3.6-1.72-6.49-1.72a11.66,11.66,0,0,0-7,1.84,3.71,3.71,0,0,0-1.61,3.15,3.83,3.83,0,0,0,1.51,3.07q1.93,1.62,9.41,3.39a50,50,0,0,1,11,3.64,14.29,14.29,0,0,1,5.59,5.16,15,15,0,0,1,2,8.07,14.89,14.89,0,0,1-2.41,8.16,14.55,14.55,0,0,1-6.85,5.65,28.59,28.59,0,0,1-11,1.85q-9.6,0-14.77-4.43T1032.11,35.05Z"/><polygon class="cls-1" points="17.27 457.58 0 409.26 10.59 409.26 22.8 445.02 34.64 409.26 45 409.26 27.69 457.58 17.27 457.58"/><rect class="cls-2" x="189.12" y="409.26" width="9.75" height="48.31"/><polygon class="cls-1" points="347.11 457.58 347.11 409.26 382.94 409.26 382.94 417.41 356.85 417.41 356.85 428.13 381.13 428.13 381.13 436.28 356.85 436.28 356.85 449.43 383.87 449.43 383.87 457.58 347.11 457.58"/><polygon class="cls-1" points="532.1 457.58 532.1 417.41 517.76 417.41 517.76 409.26 556.2 409.26 556.2 417.41 541.85 417.41 541.85 457.58 532.1 457.58"/><polygon class="cls-1" points="689.29 457.58 689.29 409.26 698.81 409.26 718.57 441.52 718.57 409.26 727.66 409.26 727.66 457.58 717.86 457.58 698.39 426.06 698.39 457.58 689.29 457.58"/><path class="cls-1" d="M886.26,438.45l-6.68-17.93-6.52,17.93Zm18,19.13H893.6l-4.22-11H870.06l-4,11H855.73l18.82-48.32h10.31Z"/><polygon class="cls-1" points="1028.12 457.58 1028.12 409.26 1042.74 409.26 1051.51 442.21 1060.17 409.26 1074.8 409.26 1074.8 457.58 1065.73 457.58 1065.73 419.54 1056.17 457.58 1046.76 457.58 1037.21 419.54 1037.21 457.58 1028.12 457.58"/><path class="cls-3" d="M486.36,238.63A74.16,74.16,0,0,0,467,223.09a163,163,0,0,0-24.15-11A251.3,251.3,0,0,0,415.23,204q-14.42-3.34-29.56-6.73c-10.77-2.35-20-4.73-27.41-7.06a96.07,96.07,0,0,1-17.91-7.36c-4.29-2.43-7.38-5.22-9.23-8.31a22.08,22.08,0,0,1-2.76-11.44,25.26,25.26,0,0,1,3.33-12.94,30.49,30.49,0,0,1,9.81-10.07,54,54,0,0,1,16.35-6.89,92.84,92.84,0,0,1,22.68-2.5c35.3,0,53.74,13.18,56.36,40.29l.3,3.17H497l-.19-3.68c-.73-14.31-4-27.26-9.84-38.5a85.53,85.53,0,0,0-24.19-28.78C452.58,95.44,440.2,89.45,426,85.43s-30-6-47.16-6a156.17,156.17,0,0,0-43.5,5.71,113.52,113.52,0,0,0-34.23,15.94,79.75,79.75,0,0,0-23.05,24.7,73.31,73.31,0,0,0-9.81,31.81,67.05,67.05,0,0,0-.11,10.3c.21,3.22.54,6.44,1,9.57,1.61,12.46,5.51,22.9,11.58,31a76.45,76.45,0,0,0,24,20.58,159.43,159.43,0,0,0,34.25,14c12.78,3.71,27.15,7.42,42.65,11.07,10.52,2.61,19.86,5.18,27.75,7.61a87,87,0,0,1,19.07,8,32.48,32.48,0,0,1,10.74,9.73,22.52,22.52,0,0,1,3.42,12.59,29.91,29.91,0,0,1-3.83,15.14,33.9,33.9,0,0,1-11.16,11.41,59.34,59.34,0,0,1-18.34,7.41,107.1,107.1,0,0,1-24.7,2.64,100.22,100.22,0,0,1-26.08-3.25,64.54,64.54,0,0,1-20.81-9.55,48.71,48.71,0,0,1-14.23-15.69,54.63,54.63,0,0,1-6.59-22.31l-.29-3.18H257.32l.21,3.7c1.87,32.94,13.83,58.46,35.54,75.83,21.55,17.23,52.8,26,92.91,26a168.58,168.58,0,0,0,46.54-6.11,115.11,115.11,0,0,0,37.14-17.89,85.91,85.91,0,0,0,24.83-28.68c6-11.23,9-24.08,9-38.17,0-11-1.52-20.75-4.51-29A67.57,67.57,0,0,0,486.36,238.63Z"/><path class="cls-3" d="M1009,79.94l-.8,2.52c-8.76,27.4-17.72,55-26.64,82.16-8.57,26-17.53,53.63-26.65,82.06L935,312.11,915.42,246.6c-8.69-26.25-17.69-53.83-26.72-81.95C880,137.46,871,109.79,861.94,82.42l-.81-2.48h-66L900.38,377.8l.85,2.41h67.48L1074.79,79.94Z"/><path class="cls-3" d="M165.79,192.52a31.26,31.26,0,0,1-8.26,12.93,38.44,38.44,0,0,1-14.88,8.19q-9.42,3-23.46,3.43c-3.33.27-6.76.41-10.2.41H63.32V132.86H97.39c10.56,0,20.36.29,29.13.87,8.55.55,15.46,1.59,20.42,3.07a26.43,26.43,0,0,1,8.58,4.87,31.07,31.07,0,0,1,6.88,8.23A45.5,45.5,0,0,1,166.9,161a50.48,50.48,0,0,1,1.61,12.84,58,58,0,0,1-2.72,18.65Zm63.86-48.59a82.6,82.6,0,0,0-11.38-25.07,73.51,73.51,0,0,0-17.89-19.58A83.68,83.68,0,0,0,177.29,87.4a129.14,129.14,0,0,0-28.19-5.93C139,80.45,127.83,80,115.8,80H19.08A19.08,19.08,0,0,0,0,99V380.21H63.32V270.4h51c18.88,0,35.85-2.08,50.46-6.2,14.78-4.16,27.39-10.47,37.48-18.77a80.34,80.34,0,0,0,23.13-31.06c5.14-12.15,7.76-26.44,7.76-42.45A110.64,110.64,0,0,0,229.65,143.93Z"/><path class="cls-3" d="M706.28,317.93c-8.43,6.21-21.7,9.37-39.46,9.37H615.21V252.42h48.37a132.45,132.45,0,0,1,26.76,2.31c7,1.48,12.59,3.75,16.71,6.75a24.5,24.5,0,0,1,8.61,11.18A47.69,47.69,0,0,1,718.45,290c0,12.76-4,21.91-12.17,28ZM615.21,132.86h46.64A101.87,101.87,0,0,1,684.74,135a39.8,39.8,0,0,1,14.39,6.12,21.68,21.68,0,0,1,7.56,9.69,39.61,39.61,0,0,1,2.45,14.57c0,12.44-3.45,21.27-10.23,26.23-7.12,5.21-18.64,7.86-34.25,7.86H615.21V132.86ZM779.67,266.09A63.61,63.61,0,0,0,769,245.2,72.82,72.82,0,0,0,751.22,229a74.65,74.65,0,0,0-16.33-8c10.91-6.27,19.43-14,25.39-23,7.36-11.17,11.08-24.55,11.08-39.79a73,73,0,0,0-7.19-32.68,69.53,69.53,0,0,0-20.89-24.79c-9-6.72-20-12-32.94-15.53s-27.24-5.33-43.07-5.33H571.42A19.09,19.09,0,0,0,552.33,99V380.21H670.07c37.09,0,65.44-7.85,84.27-23.35,19.07-15.65,28.73-38.09,28.73-66.68A84.14,84.14,0,0,0,779.67,266.09Z"/></g></g></svg>