<svg height="512" viewBox="0 0 512 512" width="512" xmlns="http://www.w3.org/2000/svg"><g><g><path d="m496 48v238.52l-149.57-187.04-153.78 185.4-55.91-75.97-115.23 143.09h-5.51v-304z" fill="#83d8f4"/><g fill="#a0815c"><path d="m192 16h128v32h-128z"/><path d="m87 496h-48l65-144h48z"/><path d="m424 496h48l-65-144h-48z"/></g><circle cx="135" cy="128" fill="#ffda44" r="48"/><path d="m242.05 352h-220.54l115.23-143.09 55.91 75.97 8.57 11.64z" fill="#91cc04"/><path d="m496 286.52v65.48h-253.95l-40.83-55.48-8.57-11.64 153.78-185.4z" fill="#4e901e"/></g><g><path d="m496 40h-168v-24a8 8 0 0 0 -8-8h-128a8 8 0 0 0 -8 8v24h-168a8 8 0 0 0 -8 8v304a8 8 0 0 0 8 8h75.61l-59.9 132.71a8 8 0 0 0 7.29 11.29h48a7.994 7.994 0 0 0 7.29-4.71l30.38-67.29h261.66l30.38 67.29a7.994 7.994 0 0 0 7.29 4.71h48a8 8 0 0 0 7.29-11.29l-59.9-132.71h76.61a8 8 0 0 0 8-8v-304a8 8 0 0 0 -8-8zm-296-16h112v16h-112zm-161.09 320 97.55-121.94 89.42 121.94zm42.92 144h-30.44l57.78-128h30.44zm50.06-72 25.28-56h196.66l25.28 56zm327.72 72h-30.44l-57.78-128h30.44zm28.39-144h-242.28l-40.49-55.21 141.04-176.3 141.73 186.72zm0-71.25-135.19-178.11a8 8 0 0 0 -12.62-.16l-144.76 180.94-52.24-71.24a8.008 8.008 0 0 0 -12.7-.26l-106.49 133.11v-281.03h464z"/><path d="m135 184a56 56 0 1 0 -56-56 56.064 56.064 0 0 0 56 56zm0-96a40 40 0 1 1 -40 40 40.045 40.045 0 0 1 40-40z"/></g></g></svg>